<?xml version="1.0" encoding="UTF-8"?>
<svg version="1.1" xmlns="http://www.w3.org/2000/svg" width="232" height="179">
<path d="M0 0 C76.56 0 153.12 0 232 0 C232 59.07 232 118.14 232 179 C155.44 179 78.88 179 0 179 C0 119.93 0 60.86 0 0 Z " fill="#F5F5F5" transform="translate(0,0)"/>
<path d="M0 0 C25.08 0 50.16 0 76 0 C76 3.96 76 7.92 76 12 C71.71 12 67.42 12 63 12 C63 16.29 63 20.58 63 25 C59.04 25 55.08 25 51 25 C51 37.54 51 50.08 51 63 C55.29 63 59.58 63 64 63 C64 67.29 64 71.58 64 76 C76.54 76 89.08 76 102 76 C102 63.46 102 50.92 102 38 C105.96 38 109.92 38 114 38 C114 50.54 114 63.08 114 76 C118.29 76 122.58 76 127 76 C127 79.96 127 83.92 127 88 C131.29 88 135.58 88 140 88 C140 92.29 140 96.58 140 101 C135.71 101 131.42 101 127 101 C127 113.54 127 126.08 127 139 C106.21 139 85.42 139 64 139 C64 142.96 64 146.92 64 151 C51.46 151 38.92 151 26 151 C26 147.04 26 143.08 26 139 C17.75 139 9.5 139 1 139 C1 134.71 1 130.42 1 126 C-3.29 126 -7.58 126 -12 126 C-12 121.71 -12 117.42 -12 113 C-24.54 113 -37.08 113 -50 113 C-50 109.04 -50 105.08 -50 101 C-54.29 101 -58.58 101 -63 101 C-63 96.71 -63 92.42 -63 88 C-66.96 88 -70.92 88 -75 88 C-75 75.46 -75 62.92 -75 50 C-71.04 50 -67.08 50 -63 50 C-63 46.04 -63 42.08 -63 38 C-54.42 38 -45.84 38 -37 38 C-37 33.71 -37 29.42 -37 25 C-33.04 25 -29.08 25 -25 25 C-25 20.71 -25 16.42 -25 12 C-16.75 12 -8.5 12 0 12 C0 8.04 0 4.08 0 0 Z " fill="#FAE83D" transform="translate(80,14)"/>
<path d="M0 0 C3.96 0 7.92 0 12 0 C12 12.54 12 25.08 12 38 C16.29 38 20.58 38 25 38 C25 41.96 25 45.92 25 50 C29.29 50 33.58 50 38 50 C38 54.29 38 58.58 38 63 C33.71 63 29.42 63 25 63 C25 75.54 25 88.08 25 101 C4.21 101 -16.58 101 -38 101 C-38 104.96 -38 108.92 -38 113 C-50.54 113 -63.08 113 -76 113 C-76 109.04 -76 105.08 -76 101 C-63.79 101 -51.58 101 -39 101 C-39 96.71 -39 92.42 -39 88 C-42.96 88 -46.92 88 -51 88 C-51 84.04 -51 80.08 -51 76 C-55.29 76 -59.58 76 -64 76 C-64 71.71 -64 67.42 -64 63 C-59.71 63 -55.42 63 -51 63 C-51 58.71 -51 54.42 -51 50 C-47.04 50 -43.08 50 -39 50 C-39 46.04 -39 42.08 -39 38 C-42.96 38 -46.92 38 -51 38 C-51 33.71 -51 29.42 -51 25 C-46.71 25 -42.42 25 -38 25 C-38 29.29 -38 33.58 -38 38 C-25.46 38 -12.92 38 0 38 C0 25.46 0 12.92 0 0 Z " fill="#6E5337" transform="translate(182,52)"/>
<path d="M0 0 C20.46 0 40.92 0 62 0 C62 3.96 62 7.92 62 12 C66.29 12 70.58 12 75 12 C75 20.25 75 28.5 75 37 C50.25 37 25.5 37 0 37 C0 24.79 0 12.58 0 0 Z " fill="#F6F6F4" transform="translate(18,65)"/>
<path d="M0 0 C3.96 0 7.92 0 12 0 C12 4.29 12 8.58 12 13 C20.58 13 29.16 13 38 13 C38 16.96 38 20.92 38 25 C42.29 25 46.58 25 51 25 C51 29.29 51 33.58 51 38 C54.96 38 58.92 38 63 38 C63 46.58 63 55.16 63 64 C59.04 64 55.08 64 51 64 C51 67.96 51 71.92 51 76 C46.71 76 42.42 76 38 76 C38 71.71 38 67.42 38 63 C41.96 63 45.92 63 50 63 C50 54.75 50 46.5 50 38 C45.71 38 41.42 38 37 38 C37 34.04 37 30.08 37 26 C16.54 26 -3.92 26 -25 26 C-25 38.21 -25 50.42 -25 63 C-21.04 63 -17.08 63 -13 63 C-13 67.29 -13 71.58 -13 76 C-17.29 76 -21.58 76 -26 76 C-26 71.71 -26 67.42 -26 63 C-29.96 63 -33.92 63 -38 63 C-38 50.46 -38 37.92 -38 25 C-34.04 25 -30.08 25 -26 25 C-26 21.04 -26 17.08 -26 13 C-17.42 13 -8.84 13 0 13 C0 8.71 0 4.42 0 0 Z " fill="#959272" transform="translate(43,39)"/>
<path d="M0 0 C3.96 0 7.92 0 12 0 C12 4.29 12 8.58 12 13 C15.96 13 19.92 13 24 13 C24 16.63 24 20.26 24 24 C20.04 24 16.08 24 12 24 C12 32.58 12 41.16 12 50 C16.29 50 20.58 50 25 50 C25 41.75 25 33.5 25 25 C28.96 25 32.92 25 37 25 C37 37.21 37 49.42 37 62 C24.79 62 12.58 62 0 62 C0 58.04 0 54.08 0 50 C-4.29 50 -8.58 50 -13 50 C-13 37.46 -13 24.92 -13 12 C-8.71 12 -4.42 12 0 12 C0 8.04 0 4.08 0 0 Z " fill="#F5F5F5" transform="translate(144,27)"/>
<path d="M0 0 C20.46 0 40.92 0 62 0 C62 12.21 62 24.42 62 37 C41.87 37 21.74 37 1 37 C1 33.04 1 29.08 1 25 C17.17 25 33.34 25 50 25 C50 20.71 50 16.42 50 12 C33.5 12 17 12 0 12 C0 8.04 0 4.08 0 0 Z " fill="#020001" transform="translate(144,115)"/>
<path d="M0 0 C3.96 0 7.92 0 12 0 C12 12.54 12 25.08 12 38 C16.29 38 20.58 38 25 38 C25 41.96 25 45.92 25 50 C4.21 50 -16.58 50 -38 50 C-38 46.04 -38 42.08 -38 38 C-25.46 38 -12.92 38 0 38 C0 25.46 0 12.92 0 0 Z " fill="#020201" transform="translate(182,52)"/>
<path d="M0 0 C24.75 0 49.5 0 75 0 C75 3.96 75 7.92 75 12 C70.71 12 66.42 12 62 12 C62 16.29 62 20.58 62 25 C58.04 25 54.08 25 50 25 C50 20.71 50 16.42 50 12 C33.5 12 17 12 0 12 C0 8.04 0 4.08 0 0 Z " fill="#010100" transform="translate(81,14)"/>
<path d="M0 0 C3.96 0 7.92 0 12 0 C12 4.29 12 8.58 12 13 C20.25 13 28.5 13 37 13 C37 16.96 37 20.92 37 25 C16.54 25 -3.92 25 -25 25 C-25 21.04 -25 17.08 -25 13 C-16.75 13 -8.5 13 0 13 C0 8.71 0 4.42 0 0 Z " fill="#010000" transform="translate(43,39)"/>
<path d="M0 0 C16.5 0 33 0 50 0 C50 8.25 50 16.5 50 25 C46.04 25 42.08 25 38 25 C38 20.71 38 16.42 38 12 C25.46 12 12.92 12 0 12 C0 8.04 0 4.08 0 0 Z " fill="#010101" transform="translate(30,115)"/>
<path d="M0 0 C20.46 0 40.92 0 62 0 C62 3.63 62 7.26 62 11 C41.54 11 21.08 11 0 11 C0 7.37 0 3.74 0 0 Z " fill="#FD5521" transform="translate(144,103)"/>
<path d="M0 0 C16.5 0 33 0 50 0 C50 3.96 50 7.92 50 12 C33.5 12 17 12 0 12 C0 8.04 0 4.08 0 0 Z " fill="#FC5723" transform="translate(144,128)"/>
<path d="M0 0 C16.17 0 32.34 0 49 0 C49 3.96 49 7.92 49 12 C32.83 12 16.66 12 0 12 C0 8.04 0 4.08 0 0 Z " fill="#FDEA3F" transform="translate(31,102)"/>
<path d="M0 0 C3.96 0 7.92 0 12 0 C12 12.54 12 25.08 12 38 C8.04 38 4.08 38 0 38 C0 25.46 0 12.92 0 0 Z " fill="#060506" transform="translate(119,39)"/>
<path d="M0 0 C12.21 0 24.42 0 37 0 C37 3.96 37 7.92 37 12 C24.79 12 12.58 12 0 12 C0 8.04 0 4.08 0 0 Z " fill="#010101" transform="translate(106,153)"/>
<path d="M0 0 C3.96 0 7.92 0 12 0 C12 12.21 12 24.42 12 37 C8.04 37 4.08 37 0 37 C0 24.79 0 12.58 0 0 Z " fill="#000000" transform="translate(5,65)"/>
<path d="M0 0 C8.25 0 16.5 0 25 0 C25 4.29 25 8.58 25 13 C16.75 13 8.5 13 0 13 C0 8.71 0 4.42 0 0 Z " fill="#0B0B09" transform="translate(81,140)"/>
<path d="M0 0 C25.08 0 50.16 0 76 0 C76 4.29 76 8.58 76 13 C50.92 13 25.84 13 0 13 C0 12.67 0 12.34 0 12 C20.46 12 40.92 12 62 12 C62 8.37 62 4.74 62 1 C41.54 1 21.08 1 0 1 C0 0.67 0 0.34 0 0 Z " fill="#BA5E40" transform="translate(144,102)"/>
<path d="M0 0 C3.96 0 7.92 0 12 0 C12 8.25 12 16.5 12 25 C8.04 25 4.08 25 0 25 C0 16.75 0 8.5 0 0 Z " fill="#050505" transform="translate(157,52)"/>
<path d="M0 0 C7.92 0 15.84 0 24 0 C24 3.96 24 7.92 24 12 C16.08 12 8.16 12 0 12 C0 8.04 0 4.08 0 0 Z " fill="#000000" transform="translate(56,27)"/>
<path d="M0 0 C3.63 0 7.26 0 11 0 C11 8.25 11 16.5 11 25 C7.37 25 3.74 25 0 25 C0 16.75 0 8.5 0 0 Z " fill="#000000" transform="translate(94,77)"/>
<path d="M0 0 C3.96 0 7.92 0 12 0 C12 4.29 12 8.58 12 13 C8.04 13 4.08 13 0 13 C0 8.71 0 4.42 0 0 Z " fill="#0A0906" transform="translate(81,102)"/>
<path d="M0 0 C3.96 0 7.92 0 12 0 C12 4.29 12 8.58 12 13 C8.04 13 4.08 13 0 13 C0 8.71 0 4.42 0 0 Z " fill="#080805" transform="translate(18,102)"/>
<path d="M0 0 C3.96 0 7.92 0 12 0 C12 4.29 12 8.58 12 13 C8.04 13 4.08 13 0 13 C0 8.71 0 4.42 0 0 Z " fill="#0B0B0B" transform="translate(169,39)"/>
<path d="M0 0 C3.96 0 7.92 0 12 0 C12 3.96 12 7.92 12 12 C8.04 12 4.08 12 0 12 C0 8.04 0 4.08 0 0 Z " fill="#050101" transform="translate(119,115)"/>
<path d="M0 0 C3.96 0 7.92 0 12 0 C12 3.96 12 7.92 12 12 C8.04 12 4.08 12 0 12 C0 8.04 0 4.08 0 0 Z " fill="#020101" transform="translate(207,103)"/>
<path d="M0 0 C3.96 0 7.92 0 12 0 C12 3.96 12 7.92 12 12 C8.04 12 4.08 12 0 12 C0 8.04 0 4.08 0 0 Z " fill="#FBEA3F" transform="translate(81,90)"/>
<path d="M0 0 C3.96 0 7.92 0 12 0 C12 3.96 12 7.92 12 12 C8.04 12 4.08 12 0 12 C0 8.04 0 4.08 0 0 Z " fill="#FDEC3E" transform="translate(18,90)"/>
<path d="M0 0 C3.96 0 7.92 0 12 0 C12 3.96 12 7.92 12 12 C8.04 12 4.08 12 0 12 C0 8.04 0 4.08 0 0 Z " fill="#030302" transform="translate(81,65)"/>
<path d="M0 0 C3.96 0 7.92 0 12 0 C12 3.96 12 7.92 12 12 C8.04 12 4.08 12 0 12 C0 8.04 0 4.08 0 0 Z " fill="#050505" transform="translate(157,27)"/>
<path d="M0 0 C3.63 0 7.26 0 11 0 C11 3.96 11 7.92 11 12 C7.37 12 3.74 12 0 12 C0 8.04 0 4.08 0 0 Z " fill="#000000" transform="translate(132,128)"/>
<path d="M0 0 C3.63 0 7.26 0 11 0 C11 3.96 11 7.92 11 12 C7.37 12 3.74 12 0 12 C0 8.04 0 4.08 0 0 Z " fill="#FC5723" transform="translate(132,115)"/>
<path d="M0 0 C3.63 0 7.26 0 11 0 C11 3.96 11 7.92 11 12 C7.37 12 3.74 12 0 12 C0 8.04 0 4.08 0 0 Z " fill="#030101" transform="translate(132,103)"/>
<path d="M0 0 C3.63 0 7.26 0 11 0 C11 3.96 11 7.92 11 12 C7.37 12 3.74 12 0 12 C0 8.04 0 4.08 0 0 Z " fill="#000000" transform="translate(132,77)"/>
<path d="M0 0 C0.33 0 0.66 0 1 0 C1 3.96 1 7.92 1 12 C17.5 12 34 12 51 12 C51 12.33 51 12.66 51 13 C34.5 13 18 13 1 13 C1 16.96 1 20.92 1 25 C0.67 25 0.34 25 0 25 C0 21.04 0 17.08 0 13 C-7.92 13 -15.84 13 -24 13 C-24 21.25 -24 29.5 -24 38 C-24.33 38 -24.66 38 -25 38 C-25 29.42 -25 20.84 -25 12 C-16.75 12 -8.5 12 0 12 C0 8.04 0 4.08 0 0 Z " fill="#908D69" transform="translate(80,14)"/>
<path d="M0 0 C0.33 0 0.66 0 1 0 C1 3.96 1 7.92 1 12 C4.96 12 8.92 12 13 12 C13 12.33 13 12.66 13 13 C9.04 13 5.08 13 1 13 C1 16.96 1 20.92 1 25 C4.96 25 8.92 25 13 25 C13 29.29 13 33.58 13 38 C9.04 38 5.08 38 1 38 C1 46.25 1 54.5 1 63 C0.67 63 0.34 63 0 63 C0 54.42 0 45.84 0 37 C3.96 37 7.92 37 12 37 C12 33.37 12 29.74 12 26 C8.04 26 4.08 26 0 26 C0 21.71 0 17.42 0 13 C-3.96 13 -7.92 13 -12 13 C-12 16.96 -12 20.92 -12 25 C-12.33 25 -12.66 25 -13 25 C-13 20.71 -13 16.42 -13 12 C-8.71 12 -4.42 12 0 12 C0 8.04 0 4.08 0 0 Z " fill="#B5B5B5" transform="translate(156,14)"/>
<path d="M0 0 C0.33 0 0.66 0 1 0 C1 3.96 1 7.92 1 12 C4.96 12 8.92 12 13 12 C13 12.33 13 12.66 13 13 C9.04 13 5.08 13 1 13 C1 16.96 1 20.92 1 25 C0.67 25 0.34 25 0 25 C0 21.04 0 17.08 0 13 C-3.96 13 -7.92 13 -12 13 C-12 16.96 -12 20.92 -12 25 C-12.33 25 -12.66 25 -13 25 C-13 20.71 -13 16.42 -13 12 C-8.71 12 -4.42 12 0 12 C0 8.04 0 4.08 0 0 Z " fill="#949494" transform="translate(156,14)"/>
</svg>
