<?xml version="1.0" encoding="UTF-8"?>
<svg version="1.1" xmlns="http://www.w3.org/2000/svg" width="192" height="192">
<path d="M0 0 C17.16 0 34.32 0 52 0 C52 2.64 52 5.28 52 8 C54.64 8 57.28 8 60 8 C60 10.97 60 13.94 60 17 C62.97 17 65.94 17 69 17 C69.495 20.96 69.495 20.96 70 25 C72.31 25 74.62 25 77 25 C77 33.58 77 42.16 77 51 C79.97 51 82.94 51 86 51 C86 53.64 86 56.28 86 59 C88.64 59 91.28 59 94 59 C94 62.3 94 65.6 94 69 C91.36 69 88.72 69 86 69 C86 77.25 86 85.5 86 94 C72.47 94.33 58.94 94.66 45 95 C44.67 97.31 44.34 99.62 44 102 C42.2670702 103.7329298 40.03785664 103.12820046 37.72851562 103.13894653 C36.99310547 103.1369223 36.25769531 103.13489807 35.5 103.1328125 C34.74912109 103.13376923 33.99824219 103.13472595 33.22460938 103.13571167 C31.63411373 103.13639338 30.04361533 103.13453972 28.453125 103.13037109 C26.01035345 103.12502267 23.56776579 103.13031634 21.125 103.13671875 C19.58333293 103.13605797 18.04166597 103.1347768 16.5 103.1328125 C15.76458984 103.13483673 15.02917969 103.13686096 14.27148438 103.13894653 C9.11495161 103.11495161 9.11495161 103.11495161 8 102 C7.63239269 99.67182036 7.29758419 97.3381615 7 95 C6.43152344 95.01160156 5.86304688 95.02320313 5.27734375 95.03515625 C0.39329516 95.09223194 -4.18503965 94.81956772 -9 94 C-9 91.36 -9 88.72 -9 86 C-11.64 86 -14.28 86 -17 86 C-17 83.03 -17 80.06 -17 77 C-22.61 77 -28.22 77 -34 77 C-34 74.36 -34 71.72 -34 69 C-36.64 69 -39.28 69 -42 69 C-42.33 66.69 -42.66 64.38 -43 62 C-44.134375 61.855625 -45.26875 61.71125 -46.4375 61.5625 C-50 61 -50 61 -51 60 C-51.08748207 58.07332493 -51.10697334 56.14348139 -51.09765625 54.21484375 C-51.09443359 53.04501953 -51.09121094 51.87519531 -51.08789062 50.66992188 C-51.07951172 49.43822266 -51.07113281 48.20652344 -51.0625 46.9375 C-51.05798828 45.70193359 -51.05347656 44.46636719 -51.04882812 43.19335938 C-51.03699608 40.12885883 -51.02051173 37.06445279 -51 34 C-48.03 34 -45.06 34 -42 34 C-42 31.36 -42 28.72 -42 26 C-38.20732808 25.0639658 -35.06325435 25.01723748 -31.1875 25.4375 C-30.21167969 25.53933594 -29.23585938 25.64117187 -28.23046875 25.74609375 C-27.49441406 25.82988281 -26.75835937 25.91367188 -26 26 C-26.020625 24.700625 -26.04125 23.40125 -26.0625 22.0625 C-26.08399454 20.70834367 -26.07148199 19.35243917 -26 18 C-25 17 -25 17 -23.15234375 16.90234375 C-21.1015625 16.93489583 -19.05078125 16.96744792 -17 17 C-17.020625 15.700625 -17.04125 14.40125 -17.0625 13.0625 C-17.08399454 11.70834367 -17.07148199 10.35243917 -17 9 C-16 8 -16 8 -12.40234375 7.90234375 C-10.91403133 7.9090178 -9.42573568 7.92097817 -7.9375 7.9375 C-7.17888672 7.94201172 -6.42027344 7.94652344 -5.63867188 7.95117188 C-3.75908129 7.9629932 -1.87953101 7.98092922 0 8 C0 5.36 0 2.72 0 0 Z M44 10 C44 12.64 44 15.28 44 18 C41.03 18 38.06 18 35 18 C35 25.92 35 33.84 35 42 C37.64 42.33 40.28 42.66 43 43 C43.33 45.64 43.66 48.28 44 51 C51.92 51 59.84 51 68 51 C68 43.08 68 35.16 68 27 C65.36 27 62.72 27 60 27 C60 32.61 60 38.22 60 44 C57.03 44 54.06 44 51 44 C51 37.73 51 31.46 51 25 C53.97 25 56.94 25 60 25 C60 22.69 60 20.38 60 18 C57.03 18 54.06 18 51 18 C51 15.36 51 12.72 51 10 C48.69 10 46.38 10 44 10 Z M-41 35 C-41 40.28 -41 45.56 -41 51 C-38.36 51 -35.72 51 -33 51 C-33 53.64 -33 56.28 -33 59 C-25.08 59 -17.16 59 -9 59 C-9 56.36 -9 53.72 -9 51 C-6.03 51 -3.06 51 0 51 C0 48.69 0 46.38 0 44 C-2.64 43.67 -5.28 43.34 -8 43 C-8 40.36 -8 37.72 -8 35 C-18.89 35 -29.78 35 -41 35 Z " fill="#FEFD04" transform="translate(74,41)"/>
<path d="M0 0 C1.134375 0.020625 2.26875 0.04125 3.4375 0.0625 C3.9325 5.0125 3.9325 5.0125 4.4375 10.0625 C7.0775 10.0625 9.7175 10.0625 12.4375 10.0625 C12.4375 12.7025 12.4375 15.3425 12.4375 18.0625 C1.8775 18.0625 -8.6825 18.0625 -19.5625 18.0625 C-19.5625 23.3425 -19.5625 28.6225 -19.5625 34.0625 C-19.83577868 37.06856551 -20.13562505 40.07437536 -20.5625 43.0625 C-17.5925 43.0625 -14.6225 43.0625 -11.5625 43.0625 C-11.5625 46.0325 -11.5625 49.0025 -11.5625 52.0625 C-3.3125 52.0625 4.9375 52.0625 13.4375 52.0625 C13.4375 57.6725 13.4375 63.2825 13.4375 69.0625 C19.0475 69.0625 24.6575 69.0625 30.4375 69.0625 C30.4375 71.7025 30.4375 74.3425 30.4375 77.0625 C41.6575 77.0625 52.8775 77.0625 64.4375 77.0625 C64.4375 74.4225 64.4375 71.7825 64.4375 69.0625 C75.6575 69.0625 86.8775 69.0625 98.4375 69.0625 C98.4375 66.0925 98.4375 63.1225 98.4375 60.0625 C87.2175 60.0625 75.9975 60.0625 64.4375 60.0625 C64.4375 57.4225 64.4375 54.7825 64.4375 52.0625 C78.6275 52.0625 92.8175 52.0625 107.4375 52.0625 C107.4375 60.3125 107.4375 68.5625 107.4375 77.0625 C93.9075 77.3925 80.3775 77.7225 66.4375 78.0625 C66.1075 80.3725 65.7775 82.6825 65.4375 85.0625 C63.7045702 86.7954298 61.47535664 86.19070046 59.16601562 86.20144653 C58.43060547 86.1994223 57.69519531 86.19739807 56.9375 86.1953125 C56.18662109 86.19626923 55.43574219 86.19722595 54.66210938 86.19821167 C53.07161373 86.19889338 51.48111533 86.19703972 49.890625 86.19287109 C47.44785345 86.18752267 45.00526579 86.19281634 42.5625 86.19921875 C41.02083293 86.19855797 39.47916597 86.1972768 37.9375 86.1953125 C37.20208984 86.19733673 36.46667969 86.19936096 35.70898438 86.20144653 C30.55245161 86.17745161 30.55245161 86.17745161 29.4375 85.0625 C29.06989269 82.73432036 28.73508419 80.4006615 28.4375 78.0625 C27.86902344 78.07410156 27.30054688 78.08570313 26.71484375 78.09765625 C21.83079516 78.15473194 17.25246035 77.88206772 12.4375 77.0625 C12.4375 74.4225 12.4375 71.7825 12.4375 69.0625 C9.7975 69.0625 7.1575 69.0625 4.4375 69.0625 C4.4375 66.0925 4.4375 63.1225 4.4375 60.0625 C-1.1725 60.0625 -6.7825 60.0625 -12.5625 60.0625 C-12.5625 57.4225 -12.5625 54.7825 -12.5625 52.0625 C-15.2025 52.0625 -17.8425 52.0625 -20.5625 52.0625 C-20.8925 49.7525 -21.2225 47.4425 -21.5625 45.0625 C-22.696875 44.918125 -23.83125 44.77375 -25 44.625 C-28.5625 44.0625 -28.5625 44.0625 -29.5625 43.0625 C-29.64998207 41.13582493 -29.66947334 39.20598139 -29.66015625 37.27734375 C-29.65693359 36.10751953 -29.65371094 34.93769531 -29.65039062 33.73242188 C-29.64201172 32.50072266 -29.63363281 31.26902344 -29.625 30 C-29.62048828 28.76443359 -29.61597656 27.52886719 -29.61132812 26.25585938 C-29.59949608 23.19135883 -29.58301173 20.12695279 -29.5625 17.0625 C-26.5925 17.0625 -23.6225 17.0625 -20.5625 17.0625 C-20.5625 14.4225 -20.5625 11.7825 -20.5625 9.0625 C-16.76982808 8.1264658 -13.62575435 8.07973748 -9.75 8.5 C-8.28626953 8.65275391 -8.28626953 8.65275391 -6.79296875 8.80859375 C-6.05691406 8.89238281 -5.32085937 8.97617188 -4.5625 9.0625 C-4.583125 7.763125 -4.60375 6.46375 -4.625 5.125 C-4.64649454 3.77084367 -4.63398199 2.41493917 -4.5625 1.0625 C-3.5625 0.0625 -3.5625 0.0625 0 0 Z " fill="#030101" transform="translate(52.5625,57.9375)"/>
<path d="M0 0 C17.16 0 34.32 0 52 0 C52 2.64 52 5.28 52 8 C54.64 8 57.28 8 60 8 C60 10.97 60 13.94 60 17 C62.97 17 65.94 17 69 17 C69.495 20.96 69.495 20.96 70 25 C72.31 25 74.62 25 77 25 C77 33.58 77 42.16 77 51 C79.97 51 82.94 51 86 51 C86 53.64 86 56.28 86 59 C88.64 59 91.28 59 94 59 C94 62.3 94 65.6 94 69 C91.36 69 88.72 69 86 69 C86 66.03 86 63.06 86 60 C71.81 60 57.62 60 43 60 C43 57.03 43 54.06 43 51 C40.36 51 37.72 51 35 51 C35 48.36 35 45.72 35 43 C32.03 43 29.06 43 26 43 C26 34.75 26 26.5 26 18 C29.96 17.505 29.96 17.505 34 17 C34.33 14.03 34.66 11.06 35 8 C23.45 8 11.9 8 0 8 C0 5.36 0 2.72 0 0 Z M44 10 C44 12.64 44 15.28 44 18 C41.03 18 38.06 18 35 18 C35 25.92 35 33.84 35 42 C37.64 42.33 40.28 42.66 43 43 C43.33 45.64 43.66 48.28 44 51 C51.92 51 59.84 51 68 51 C68 43.08 68 35.16 68 27 C65.36 27 62.72 27 60 27 C60 32.61 60 38.22 60 44 C57.03 44 54.06 44 51 44 C51 37.73 51 31.46 51 25 C53.97 25 56.94 25 60 25 C60 22.69 60 20.38 60 18 C57.03 18 54.06 18 51 18 C51 15.36 51 12.72 51 10 C48.69 10 46.38 10 44 10 Z " fill="#020101" transform="translate(74,41)"/>
<path d="M0 0 C1.35568336 0.00333092 1.35568336 0.00333092 2.73875427 0.00672913 C3.75973709 0.00680466 4.78071991 0.00688019 5.8326416 0.00695801 C6.94304306 0.01211929 8.05344452 0.01728058 9.19749451 0.02259827 C10.89336952 0.02472069 10.89336952 0.02472069 12.62350464 0.02688599 C16.25105891 0.03250433 19.8785525 0.04505994 23.50608826 0.05775452 C25.95856133 0.06276715 28.41103536 0.06733047 30.86351013 0.07142639 C36.89022371 0.08247971 42.91690165 0.09923568 48.94358826 0.12025452 C48.94358826 0.45025452 48.94358826 0.78025452 48.94358826 1.12025452 C37.72358826 1.12025452 26.50358826 1.12025452 14.94358826 1.12025452 C14.94358826 4.09025452 14.94358826 7.06025452 14.94358826 10.12025452 C9.33358826 10.12025452 3.72358826 10.12025452 -2.05641174 10.12025452 C-2.05641174 12.76025452 -2.05641174 15.40025452 -2.05641174 18.12025452 C0.58358826 18.12025452 3.22358826 18.12025452 5.94358826 18.12025452 C5.94358826 20.76025452 5.94358826 23.40025452 5.94358826 26.12025452 C8.58358826 26.12025452 11.22358826 26.12025452 13.94358826 26.12025452 C13.94358826 29.09025452 13.94358826 32.06025452 13.94358826 35.12025452 C16.91358826 35.12025452 19.88358826 35.12025452 22.94358826 35.12025452 C22.94358826 40.73025452 22.94358826 46.34025452 22.94358826 52.12025452 C20.30358826 52.12025452 17.66358826 52.12025452 14.94358826 52.12025452 C14.96421326 53.41962952 14.98483826 54.71900452 15.00608826 56.05775452 C15.0275828 57.41191085 15.01507024 58.76781534 14.94358826 60.12025452 C13.94358826 61.12025452 13.94358826 61.12025452 10.80076599 61.23377991 C9.40956128 61.23362084 8.01835065 61.22792958 6.62718201 61.21791077 C5.89612747 61.21649582 5.16507294 61.21508087 4.41186523 61.21362305 C2.06823193 61.2080086 -0.27530714 61.19545373 -2.61891174 61.18275452 C-4.20419683 61.17774137 -5.7894834 61.17317815 -7.37477112 61.16908264 C-11.26868784 61.15803448 -15.1625338 61.14076023 -19.05641174 61.12025452 C-19.05641174 58.15025452 -19.05641174 55.18025452 -19.05641174 52.12025452 C-22.02641174 52.12025452 -24.99641174 52.12025452 -28.05641174 52.12025452 C-28.05641174 49.15025452 -28.05641174 46.18025452 -28.05641174 43.12025452 C-25.08641174 43.12025452 -22.11641174 43.12025452 -19.05641174 43.12025452 C-19.05641174 45.76025452 -19.05641174 48.40025452 -19.05641174 51.12025452 C-11.13641174 51.12025452 -3.21641174 51.12025452 4.94358826 51.12025452 C4.94358826 48.48025452 4.94358826 45.84025452 4.94358826 43.12025452 C7.91358826 43.12025452 10.88358826 43.12025452 13.94358826 43.12025452 C13.94358826 40.81025452 13.94358826 38.50025452 13.94358826 36.12025452 C12.64421326 36.14087952 11.34483826 36.16150452 10.00608826 36.18275452 C8.65193192 36.20424906 7.29602743 36.1917365 5.94358826 36.12025452 C4.94358826 35.12025452 4.94358826 35.12025452 4.84593201 31.52259827 C4.85260605 30.03428584 4.86456643 28.5459902 4.88108826 27.05775452 C4.88559998 26.29914124 4.89011169 25.54052795 4.89476013 24.75892639 C4.90658146 22.8793358 4.92451748 20.99978553 4.94358826 19.12025452 C2.30358826 19.12025452 -0.33641174 19.12025452 -3.05641174 19.12025452 C-3.20078674 18.35712952 -3.34516174 17.59400452 -3.49391174 16.80775452 C-4.01967115 14.03852544 -4.01967115 14.03852544 -5.05641174 11.12025452 C-4.75172424 8.67494202 -4.75172424 8.67494202 -4.18141174 5.99525452 C-3.99836487 5.10580139 -3.81531799 4.21634827 -3.62672424 3.29994202 C-2.8062358 0.16410261 -2.8062358 0.16410261 0 0 Z " fill="#252408" transform="translate(60.05641174316406,48.87974548339844)"/>
<path d="M0 0 C17.16 0 34.32 0 52 0 C52 2.97 52 5.94 52 9 C37.81 9 23.62 9 9 9 C9 14.28 9 19.56 9 25 C6.03 25 3.06 25 0 25 C0 22.36 0 19.72 0 17 C-2.64 17 -5.28 17 -8 17 C-8 14.03 -8 11.06 -8 8 C-5.36 8 -2.72 8 0 8 C0 5.36 0 2.72 0 0 Z " fill="#966D20" transform="translate(108,101)"/>
<path d="M0 0 C1.134375 0.020625 2.26875 0.04125 3.4375 0.0625 C3.9325 5.0125 3.9325 5.0125 4.4375 10.0625 C7.0775 10.0625 9.7175 10.0625 12.4375 10.0625 C12.4375 12.7025 12.4375 15.3425 12.4375 18.0625 C1.8775 18.0625 -8.6825 18.0625 -19.5625 18.0625 C-20.38432505 21.34980019 -20.74307749 23.92811821 -20.87890625 27.265625 C-20.92080078 28.2453125 -20.96269531 29.225 -21.00585938 30.234375 C-21.06483398 31.75804687 -21.06483398 31.75804687 -21.125 33.3125 C-21.16818359 34.34375 -21.21136719 35.375 -21.25585938 36.4375 C-21.36175682 38.9790387 -21.46383443 41.52067196 -21.5625 44.0625 C-23.89544775 44.10491723 -26.22952567 44.10342937 -28.5625 44.0625 C-29.5625 43.0625 -29.5625 43.0625 -29.67602539 40.56225586 C-29.67078857 39.47823486 -29.66555176 38.39421387 -29.66015625 37.27734375 C-29.65693359 36.10751953 -29.65371094 34.93769531 -29.65039062 33.73242188 C-29.64201172 32.50072266 -29.63363281 31.26902344 -29.625 30 C-29.62048828 28.76443359 -29.61597656 27.52886719 -29.61132812 26.25585938 C-29.59949608 23.19135883 -29.58301173 20.12695279 -29.5625 17.0625 C-26.5925 17.0625 -23.6225 17.0625 -20.5625 17.0625 C-20.5625 14.4225 -20.5625 11.7825 -20.5625 9.0625 C-16.76982808 8.1264658 -13.62575435 8.07973748 -9.75 8.5 C-8.28626953 8.65275391 -8.28626953 8.65275391 -6.79296875 8.80859375 C-6.05691406 8.89238281 -5.32085937 8.97617188 -4.5625 9.0625 C-4.583125 7.763125 -4.60375 6.46375 -4.625 5.125 C-4.64649454 3.77084367 -4.63398199 2.41493917 -4.5625 1.0625 C-3.5625 0.0625 -3.5625 0.0625 0 0 Z " fill="#010101" transform="translate(52.5625,57.9375)"/>
<path d="M0 0 C0.33 0 0.66 0 1 0 C1 4.95 1 9.9 1 15 C2.82337891 14.98259766 2.82337891 14.98259766 4.68359375 14.96484375 C6.26822764 14.95546722 7.85286318 14.94636687 9.4375 14.9375 C10.23994141 14.92912109 11.04238281 14.92074219 11.86914062 14.91210938 C13.91295221 14.9034857 15.95683902 14.9477185 18 15 C19 16 19 16 19 24 C29.23 24 39.46 24 50 24 C50 21.69 50 19.38 50 17 C47.69 17 45.38 17 43 17 C43 16.67 43 16.34 43 16 C45.64 16 48.28 16 51 16 C51 13.36 51 10.72 51 8 C62.22 8 73.44 8 85 8 C85 10.97 85 13.94 85 17 C73.78 17 62.56 17 51 17 C51 19.64 51 22.28 51 25 C39.78 25 28.56 25 17 25 C17 22.36 17 19.72 17 17 C11.39 17 5.78 17 0 17 C0 11.39 0 5.78 0 0 Z " fill="#CF8D2A" transform="translate(66,110)"/>
<path d="M0 0 C2.97 0 5.94 0 9 0 C9 2.64 9 5.28 9 8 C16.92 8 24.84 8 33 8 C33 5.36 33 2.72 33 0 C35.97 0 38.94 0 42 0 C42 2.97 42 5.94 42 9 C39.36 9 36.72 9 34 9 C34 11.64 34 14.28 34 17 C25.75 17 17.5 17 9 17 C9 14.36 9 11.72 9 9 C6.03 9 3.06 9 0 9 C0 6.03 0 3.06 0 0 Z " fill="#EEED53" transform="translate(32,92)"/>
<path d="M0 0 C13.86 0 27.72 0 42 0 C42 2.64 42 5.28 42 8 C28.14 8 14.28 8 0 8 C0 5.36 0 2.72 0 0 Z " fill="#FC9904" transform="translate(117,101)"/>
<path d="M0 0 C1.4282618 0.00031703 2.85654759 0.01163717 4.28466797 0.03173828 C5.41242142 0.03598312 5.41242142 0.03598312 6.56295776 0.04031372 C8.96775125 0.05152204 11.37217428 0.07662726 13.77685547 0.10205078 C15.40575635 0.11207976 17.03466305 0.12120576 18.66357422 0.12939453 C22.65981103 0.15146343 26.65577041 0.18599728 30.65185547 0.22705078 C30.6942727 2.55999854 30.69278484 4.89407645 30.65185547 7.22705078 C28.91892567 8.95998058 26.68971211 8.35525124 24.38037109 8.36599731 C23.64496094 8.36397308 22.90955078 8.36194885 22.15185547 8.35986328 C21.40097656 8.36082001 20.65009766 8.36177673 19.87646484 8.36276245 C18.2859692 8.36344416 16.69547079 8.3615905 15.10498047 8.35742188 C12.66220892 8.35207345 10.21962126 8.35736712 7.77685547 8.36376953 C6.23518839 8.36310875 4.69352143 8.36182758 3.15185547 8.35986328 C2.41644531 8.36188751 1.68103516 8.36391174 0.92333984 8.36599731 C-4.23319292 8.34200239 -4.23319292 8.34200239 -5.34814453 7.22705078 C-5.53564453 4.78955078 -5.53564453 4.78955078 -5.34814453 2.22705078 C-3.34814453 0.22705078 -3.34814453 0.22705078 0 0 Z " fill="#010101" transform="translate(87.34814453125,135.77294921875)"/>
<path d="M0 0 C0.33 0 0.66 0 1 0 C1 7.92 1 15.84 1 24 C6.22063275 23.96042843 6.22063275 23.96042843 11.44116211 23.90991211 C13.29433759 23.90276055 15.14749308 23.9497148 17 24 C21.01386486 28.01386486 18 35.32353788 18 41 C34.5 41 51 41 68 41 C68 44.3 68 47.6 68 51 C65.36 51 62.72 51 60 51 C60 48.03 60 45.06 60 42 C45.81 42 31.62 42 17 42 C17 39.03 17 36.06 17 33 C14.36 33 11.72 33 9 33 C9 30.36 9 27.72 9 25 C6.03 25 3.06 25 0 25 C0 16.75 0 8.5 0 0 Z " fill="#2A1F04" transform="translate(100,59)"/>
<path d="M0 0 C1.35568336 0.00333092 1.35568336 0.00333092 2.73875427 0.00672913 C3.75973709 0.00680466 4.78071991 0.00688019 5.8326416 0.00695801 C6.94304306 0.01211929 8.05344452 0.01728058 9.19749451 0.02259827 C10.89336952 0.02472069 10.89336952 0.02472069 12.62350464 0.02688599 C16.25105891 0.03250433 19.8785525 0.04505994 23.50608826 0.05775452 C25.95856133 0.06276715 28.41103536 0.06733047 30.86351013 0.07142639 C36.89022371 0.08247971 42.91690165 0.09923568 48.94358826 0.12025452 C48.94358826 0.45025452 48.94358826 0.78025452 48.94358826 1.12025452 C37.72358826 1.12025452 26.50358826 1.12025452 14.94358826 1.12025452 C14.94358826 4.09025452 14.94358826 7.06025452 14.94358826 10.12025452 C9.00358826 10.12025452 3.06358826 10.12025452 -3.05641174 10.12025452 C-3.38641174 11.44025452 -3.71641174 12.76025452 -4.05641174 14.12025452 C-5.1738412 10.76796616 -4.90368679 9.38895783 -4.18141174 5.99525452 C-3.99836487 5.10580139 -3.81531799 4.21634827 -3.62672424 3.29994202 C-2.8062358 0.16410261 -2.8062358 0.16410261 0 0 Z " fill="#1C1C03" transform="translate(60.05641174316406,48.87974548339844)"/>
<path d="M0 0 C0.33 0 0.66 0 1 0 C1 5.61 1 11.22 1 17 C6.61 17 12.22 17 18 17 C18 19.64 18 22.28 18 25 C29.22 25 40.44 25 52 25 C52 22.36 52 19.72 52 17 C52.33 17 52.66 17 53 17 C53 19.97 53 22.94 53 26 C51.9805127 26.02505615 50.96102539 26.0501123 49.91064453 26.07592773 C46.13479646 26.16997004 42.35913373 26.27019837 38.58349609 26.37231445 C36.94812347 26.41567538 35.31270523 26.45734961 33.67724609 26.49731445 C31.32896159 26.55498912 28.98090696 26.61869129 26.6328125 26.68359375 C25.89942657 26.70030624 25.16604065 26.71701874 24.41043091 26.73423767 C20.57797692 26.78637962 20.57797692 26.78637962 17 28 C16.67 27.34 16.34 26.68 16 26 C15.14728516 26.01740234 15.14728516 26.01740234 14.27734375 26.03515625 C13.11912109 26.04869141 13.11912109 26.04869141 11.9375 26.0625 C11.18339844 26.07410156 10.42929688 26.08570313 9.65234375 26.09765625 C6.41635123 25.97851072 3.20563978 25.45794854 0 25 C0 16.75 0 8.5 0 0 Z " fill="#151502" transform="translate(65,110)"/>
<path d="M0 0 C11.22 0 22.44 0 34 0 C34 2.64 34 5.28 34 8 C33.67 8.33 33.34 8.66 33 9 C30.36 9 27.72 9 25 9 C25 17.25 25 25.5 25 34 C24.67 34 24.34 34 24 34 C23.97113463 29.68751391 23.95324745 25.37505238 23.9375 21.0625 C23.92912109 19.83080078 23.92074219 18.59910156 23.91210938 17.33007812 C23.90888672 16.16025391 23.90566406 14.99042969 23.90234375 13.78515625 C23.89710693 12.70113525 23.89187012 11.61711426 23.88647461 10.50024414 C24 8 24 8 25 7 C27.33297433 6.95907063 29.66705225 6.95758277 32 7 C32 5.35 32 3.7 32 2 C22.1 2 12.2 2 2 2 C2 4.31 2 6.62 2 9 C1 10 1 10 -2.81640625 10.09765625 C-4.39846682 10.09098089 -5.98051159 10.07901875 -7.5625 10.0625 C-8.36880859 10.05798828 -9.17511719 10.05347656 -10.00585938 10.04882812 C-12.00393756 10.03700518 -14.00197783 10.01906914 -16 10 C-16 11.65 -16 13.3 -16 15 C-14.329375 14.9690625 -14.329375 14.9690625 -12.625 14.9375 C-9 15 -9 15 -7 16 C-6.59270772 18.32156597 -6.25561323 20.6568787 -6 23 C-4.35 23.33 -2.7 23.66 -1 24 C-1 24.33 -1 24.66 -1 25 C-3.64 25 -6.28 25 -9 25 C-9 22.36 -9 19.72 -9 17 C-11.64 17 -14.28 17 -17 17 C-17 14.36 -17 11.72 -17 9 C-11.39 9 -5.78 9 0 9 C0 6.03 0 3.06 0 0 Z " fill="#E6E737" transform="translate(75,50)"/>
<path d="M0 0 C2.97 0 5.94 0 9 0 C9 2.64 9 5.28 9 8 C11.64 8 14.28 8 17 8 C17 10.97 17 13.94 17 17 C14.03 17 11.06 17 8 17 C8 19.64 8 22.28 8 25 C5.36 25 2.72 25 0 25 C0 27.97 0 30.94 0 34 C-0.99 33.01 -1.98 32.02 -3 31 C-2.19292428 24.74516317 -0.60461907 22.3622707 4 18 C4 16.68 4 15.36 4 14 C5.32 14 6.64 14 8 14 C7.67 13.01 7.34 12.02 7 11 C6.93259135 9.43881572 6.91485544 7.8749748 6.9375 6.3125 C6.94652344 5.50425781 6.95554687 4.69601563 6.96484375 3.86328125 C6.97644531 3.24839844 6.98804687 2.63351563 7 2 C5.02 2 3.04 2 1 2 C0.67 1.34 0.34 0.68 0 0 Z " fill="#FDFD0A" transform="translate(100,84)"/>
<path d="M0 0 C7.59 0 15.18 0 23 0 C23 2.31 23 4.62 23 7 C15.41 7 7.82 7 0 7 C0 4.69 0 2.38 0 0 Z " fill="#FEFD0E" transform="translate(42,101)"/>
<path d="M0 0 C9.9 0 19.8 0 30 0 C30 1.65 30 3.3 30 5 C20.1 5 10.2 5 0 5 C0 3.35 0 1.7 0 0 Z " fill="#FC9804" transform="translate(119,120)"/>
<path d="M0 0 C2.64 0 5.28 0 8 0 C8 5.61 8 11.22 8 17 C5.36 17 2.72 17 0 17 C0.020625 18.299375 0.04125 19.59875 0.0625 20.9375 C0.08399454 22.29165633 0.07148199 23.64756083 0 25 C-1 26 -1 26 -4.14282227 26.11352539 C-5.53402697 26.11336633 -6.92523761 26.10767506 -8.31640625 26.09765625 C-9.04746078 26.0962413 -9.77851532 26.09482635 -10.53172302 26.09336853 C-12.87535632 26.08775408 -15.21889539 26.07519922 -17.5625 26.0625 C-19.14778508 26.05748686 -20.73307166 26.05292363 -22.31835938 26.04882812 C-26.2122761 26.03777997 -30.10612205 26.02050572 -34 26 C-34 25.67 -34 25.34 -34 25 C-25.75 25 -17.5 25 -9 25 C-9 22.36 -9 19.72 -9 17 C-6.36 17 -3.72 17 -1 17 C-1 14.03 -1 11.06 -1 8 C-0.67 8 -0.34 8 0 8 C0 10.64 0 13.28 0 16 C2.31 16 4.62 16 7 16 C7 11.05 7 6.1 7 1 C4.69 1 2.38 1 0 1 C0 0.67 0 0.34 0 0 Z " fill="#737219" transform="translate(75,84)"/>
<path d="M0 0 C13.86 0 27.72 0 42 0 C42 2.64 42 5.28 42 8 C28.14 8 14.28 8 0 8 C0 5.36 0 2.72 0 0 Z M2 2 C2 3.65 2 5.3 2 7 C14.87 7 27.74 7 41 7 C41 5.35 41 3.7 41 2 C28.13 2 15.26 2 2 2 Z " fill="#E59830" transform="translate(117,101)"/>
<path d="M0 0 C4.32749429 6.49124143 1.99438918 16.54208113 1 24 C3.97 24 6.94 24 10 24 C10 26.64 10 29.28 10 32 C5.545 32.495 5.545 32.495 1 33 C-0.09266243 25.97942879 -0.11532882 19.09531697 -0.0625 12 C-0.05798828 10.84371094 -0.05347656 9.68742187 -0.04882812 8.49609375 C-0.03712529 5.66400775 -0.02072996 2.83203189 0 0 Z " fill="#1A1A06" transform="translate(31,77)"/>
<path d="M0 0 C2.64 0 5.28 0 8 0 C8 4.95 8 9.9 8 15 C5.69 15 3.38 15 1 15 C0.67 10.05 0.34 5.1 0 0 Z " fill="#040302" transform="translate(74,85)"/>
<path d="M0 0 C0.33 0 0.66 0 1 0 C1 4.95 1 9.9 1 15 C2.82337891 14.98259766 2.82337891 14.98259766 4.68359375 14.96484375 C6.26822764 14.95546722 7.85286318 14.94636687 9.4375 14.9375 C10.23994141 14.92912109 11.04238281 14.92074219 11.86914062 14.91210938 C13.91295221 14.9034857 15.95683902 14.9477185 18 15 C19 16 19 16 19 24 C29.23 24 39.46 24 50 24 C50 21.69 50 19.38 50 17 C50.33 17 50.66 17 51 17 C51 19.64 51 22.28 51 25 C39.78 25 28.56 25 17 25 C17 22.36 17 19.72 17 17 C11.39 17 5.78 17 0 17 C0 11.39 0 5.78 0 0 Z " fill="#DCDC45" transform="translate(66,110)"/>
<path d="M0 0 C0.33 0 0.66 0 1 0 C1 2.31 1 4.62 1 7 C3.64 6.67 6.28 6.34 9 6 C10.16581918 8.33163836 10.12905609 9.72153482 10.1328125 12.31640625 C10.13474609 13.58581055 10.13474609 13.58581055 10.13671875 14.88085938 C10.13285156 15.76580078 10.12898438 16.65074219 10.125 17.5625 C10.12886719 18.45130859 10.13273437 19.34011719 10.13671875 20.25585938 C10.13542969 21.10083984 10.13414063 21.94582031 10.1328125 22.81640625 C10.13168457 23.59443604 10.13055664 24.37246582 10.12939453 25.17407227 C10 27 10 27 9 28 C6.32941149 28.14115161 3.67567762 28.04247107 1 28 C1 30.31 1 32.62 1 35 C0.34 34.67 -0.32 34.34 -1 34 C-0.67 31.36 -0.34 28.72 0 26 C2.64 26 5.28 26 8 26 C8 20.39 8 14.78 8 9 C5.03 9 2.06 9 -1 9 C-1.09765625 2.84765625 -1.09765625 2.84765625 -1 1 C-0.67 0.67 -0.34 0.34 0 0 Z " fill="#E4E630" transform="translate(75,75)"/>
<path d="M0 0 C14.19 0 28.38 0 43 0 C42.67 0.66 42.34 1.32 42 2 C22.2 1.505 22.2 1.505 2 1 C2.33 2.65 2.66 4.3 3 6 C13.23 6.33 23.46 6.66 34 7 C34 7.33 34 7.66 34 8 C22.78 8 11.56 8 0 8 C0 5.36 0 2.72 0 0 Z " fill="#281201" transform="translate(117,110)"/>
<path d="M0 0 C2.97 0 5.94 0 9 0 C9 2.64 9 5.28 9 8 C9.66 8.33 10.32 8.66 11 9 C7.37 9 3.74 9 0 9 C0 6.03 0 3.06 0 0 Z " fill="#E6E640" transform="translate(32,92)"/>
<path d="M0 0 C2.64 0 5.28 0 8 0 C8 3.3 8 6.6 8 10 C5.36 10 2.72 10 0 10 C0 6.7 0 3.4 0 0 Z " fill="#060302" transform="translate(160,100)"/>
<path d="M0 0 C2.64 0 5.28 0 8 0 C8 2.64 8 5.28 8 8 C5.36 8 2.72 8 0 8 C0 5.36 0 2.72 0 0 Z " fill="#120700" transform="translate(109,118)"/>
<path d="M0 0 C2.64 0 5.28 0 8 0 C8 2.64 8 5.28 8 8 C5.36 8 2.72 8 0 8 C0 5.36 0 2.72 0 0 Z " fill="#141201" transform="translate(100,110)"/>
<path d="M0 0 C2.64 0 5.28 0 8 0 C8 2.64 8 5.28 8 8 C5.36 8 2.72 8 0 8 C0 5.36 0 2.72 0 0 Z " fill="#EE9A1F" transform="translate(109,110)"/>
<path d="M0 0 C2.64 0 5.28 0 8 0 C8 2.64 8 5.28 8 8 C5.36 8 2.72 8 0 8 C0 5.36 0 2.72 0 0 Z " fill="#130E01" transform="translate(109,101)"/>
<path d="M0 0 C1.32 0.33 2.64 0.66 4 1 C3.01 1 2.02 1 1 1 C1 2.65 1 4.3 1 6 C2.670625 5.9690625 2.670625 5.9690625 4.375 5.9375 C8 6 8 6 10 7 C10.40729228 9.32156597 10.74438677 11.6568787 11 14 C12.65 14.33 14.3 14.66 16 15 C16 15.33 16 15.66 16 16 C13.36 16 10.72 16 8 16 C8 13.36 8 10.72 8 8 C5.36 8 2.72 8 0 8 C0 5.36 0 2.72 0 0 Z " fill="#EDF033" transform="translate(58,59)"/>
<path d="M0 0 C2.31 0 4.62 0 7 0 C7 2.31 7 4.62 7 7 C4.69 7 2.38 7 0 7 C0 4.69 0 2.38 0 0 Z " fill="#030300" transform="translate(67,102)"/>
<path d="M0 0 C2.31 0 4.62 0 7 0 C7 2.31 7 4.62 7 7 C4.69 7 2.38 7 0 7 C0 4.69 0 2.38 0 0 Z " fill="#FCFB17" transform="translate(67,93)"/>
<path d="M0 0 C2.97 0 5.94 0 9 0 C9 2.64 9 5.28 9 8 C11.64 8 14.28 8 17 8 C16.01 9.485 16.01 9.485 15 11 C12.6568787 10.74438677 10.32156597 10.40729228 8 10 C6.64560332 7.29120665 6.93498549 4.99066732 7 2 C5.02 2 3.04 2 1 2 C0.67 1.34 0.34 0.68 0 0 Z " fill="#D0D23A" transform="translate(100,84)"/>
<path d="M0 0 C0.33 0 0.66 0 1 0 C1 2.64 1 5.28 1 8 C-1.97 8 -4.94 8 -8 8 C-8 10.64 -8 13.28 -8 16 C-10.64 16 -13.28 16 -16 16 C-16 15.67 -16 15.34 -16 15 C-13.69 15 -11.38 15 -9 15 C-9.020625 13.700625 -9.04125 12.40125 -9.0625 11.0625 C-9.08399454 9.70834367 -9.07148199 8.35243917 -9 7 C-8 6 -8 6 -4.4375 5.9375 C-3.303125 5.958125 -2.16875 5.97875 -1 6 C-0.67 4.02 -0.34 2.04 0 0 Z " fill="#F3F346" transform="translate(116,93)"/>
<path d="M0 0 C2.64 0 5.28 0 8 0 C8 2.64 8 5.28 8 8 C6 5 6 5 6 3 C4.35 3 2.7 3 1 3 C0.67 2.01 0.34 1.02 0 0 Z " fill="#F2F229" transform="translate(100,118)"/>
<path d="M0 0 C1.32 0 2.64 0 4 0 C4 1.98 4 3.96 4 6 C2.35 6 0.7 6 -1 6 C-0.67 4.02 -0.34 2.04 0 0 Z " fill="#FDFC0D" transform="translate(35,93)"/>
<path d="M0 0 C2.64 0 5.28 0 8 0 C8 0.33 8 0.66 8 1 C5.69 1 3.38 1 1 1 C1 4.3 1 7.6 1 11 C0.01 10.01 -0.98 9.02 -2 8 C-1.79846293 5.15124622 -0.85624823 2.74900747 0 0 Z " fill="#F8F723" transform="translate(99,107)"/>
<path d="M0 0 C2.64 0 5.28 0 8 0 C9.231394 2.46278801 9.07159196 4.2795055 9 7 C9.66 6.67 10.32 6.34 11 6 C11.33 6.99 11.66 7.98 12 9 C10.35 9 8.7 9 7 9 C6.855625 8.05125 6.71125 7.1025 6.5625 6.125 C6.17064601 3.1065506 6.17064601 3.1065506 5 1 C3.35 1 1.7 1 0 1 C0 0.67 0 0.34 0 0 Z " fill="#FBFB13" transform="translate(69,73)"/>
<path d="M0 0 C1.65 0 3.3 0 5 0 C4 3 4 3 2 4 C1.34786708 6.02463255 1.34786708 6.02463255 1 8 C0.01 7.67 -0.98 7.34 -2 7 C-1.34 7 -0.68 7 0 7 C0 4.69 0 2.38 0 0 Z " fill="#FBFD11" transform="translate(76,103)"/>
<path d="M0 0 C3.96 0.33 7.92 0.66 12 1 C12 1.33 12 1.66 12 2 C10.37585622 2.19477739 8.75063577 2.38059458 7.125 2.5625 C6.22007813 2.66691406 5.31515625 2.77132812 4.3828125 2.87890625 C2 3 2 3 0 2 C-0.33 2.66 -0.66 3.32 -1 4 C-0.67 2.68 -0.34 1.36 0 0 Z " fill="#0A0A0A" transform="translate(33,66)"/>
</svg>
